# xmcd CD database file
#
# Track frame offsets:
#	182
#	11261
#	24840
#	35878
#	47996
#	59787
#	72527
#	85127
#	99632
#	110989
#	123945
#	136683
#	149133
#	161665
#	173909
#	185649
#	198957
#	212866
#
# Disc length: 3005 seconds
#
# Revision: 0
# Processed by: cddbd v1.5.1PL0 Copyright (c) Steve Scherf et al.
# Submitted via: CDex 1.51
#
DISCID=150bbb12
DTITLE=Various Artist - Country Gospel - 1929-1946 - CD 2
DYEAR=1929
DGENRE=Country
TTITLE0=Monroe Brothers - Will The Circle Be Unbroken
TTITLE1=Carson Robison - Open Up Them Pearly Gates
TTITLE2=Anglin Twins - Just Inside The Pearly Gates
TTITLE3=Sons Of The Pioneers - When The Golden Train Comes Down
TTITLE4=Sons Of The Pioneers - You Must Come In At The Door
TTITLE5=Roy Acuff - It Won't Be Long
TTITLE6=Roy Acuff - The Prodigal Son
TTITLE7=Shelton Brothers - Precious Memories
TTITLE8=Armstrong Twins - Address From Heaven
TTITLE9=Hank Williams - Calling You
TTITLE10=Hank Williams - Wealth Won't Save Your Soul
TTITLE11=Blue Sky Boys - Speak To Me Little Darling
TTITLE12=Carl Story - My Lord Keeps A Record
TTITLE13=Carl Story -  Are You Afraid To Die
TTITLE14=Carl Story - Echose From The Burning Bush
TTITLE15=Bill Monroe - Wicked Path Of Sin
TTITLE16=Molly O'Day - The Drunken Driver
TTITLE17=Molly O'Day - The Tramp On The Street
EXTD=YEAR: 1929
EXTT0=
EXTT1=
EXTT2=
EXTT3=
EXTT4=
EXTT5=
EXTT6=
EXTT7=
EXTT8=
EXTT9=
EXTT10=
EXTT11=
EXTT12=
EXTT13=
EXTT14=
EXTT15=
EXTT16=
EXTT17=
PLAYORDER=
